<svg xmlns="http://www.w3.org/2000/svg" viewBox="0 0 64 64" role="img" aria-label="Logo astronauta Encontre Aqui Tech">
  <rect width="64" height="64" rx="16" fill="#080a0d"/>
  <circle cx="50" cy="12" r="2.5" fill="#257da7"/>
  <circle cx="13" cy="49" r="1.8" fill="#c29f73"/>
  <path d="M18 49c2.4-7.8 7.3-12.2 14-12.2S43.6 41.2 46 49v4H18v-4Z" fill="#dcc7a6"/>
  <path d="M22 53v-5.4c0-2 1.6-3.6 3.6-3.6h12.8c2 0 3.6 1.6 3.6 3.6V53" fill="#b99569"/>
  <circle cx="32" cy="28" r="22" fill="#efe2c9"/>
  <path d="M14 28c0-12.2 7.8-21.2 18-22 12.4 1.2 22 10.6 22 22 0 11.2-8.4 20.4-19.3 21.8C23.1 49.1 14 39.6 14 28Z" fill="#d7bd95"/>
  <path d="M17.7 29.4c0-8.1 6.5-14.6 14.6-14.6h4.2c6.2 0 11.3 5.1 11.3 11.3v3.1c0 7.1-5.8 12.9-12.9 12.9h-4.7c-6.9 0-12.5-5.7-12.5-12.7Z" fill="#10151a"/>
  <path d="M21.5 29.4c0-6 4.9-10.8 10.8-10.8h4.1c4.2 0 7.6 3.4 7.6 7.6v2.7c0 5.2-4.2 9.4-9.4 9.4h-4.5c-4.7 0-8.6-4-8.6-8.9Z" fill="#17222a"/>
  <path d="M24 24.5c2.1-2.4 5.2-3.8 8.5-3.8h3.2c3 0 5.5 2.4 5.5 5.5v1.2c-5.4 2.7-11.5 3.5-18.4 2.3-.1-1.9.4-3.7 1.2-5.2Z" fill="#257da7" opacity=".9"/>
  <path d="M26 21.8c2.1-1.2 4.3-1.8 6.7-1.8h2.9c2.4 0 4.3 1.9 4.3 4.3-4.5.9-9 .5-13.9-1.1v-1.4Z" fill="#63d0ff" opacity=".42"/>
  <path d="M13.5 23.8h5.8v12h-5.8c-2.3 0-4.2-1.9-4.2-4.2v-3.6c0-2.3 1.9-4.2 4.2-4.2Z" fill="#c29f73"/>
  <path d="M44.7 23.8h5.8c2.3 0 4.2 1.9 4.2 4.2v3.6c0 2.3-1.9 4.2-4.2 4.2h-5.8v-12Z" fill="#c29f73"/>
  <path d="M17 13.5C21.1 8.8 26.4 6 32 6c7 0 13.5 4.2 17.4 10.8" fill="none" stroke="#fff4da" stroke-width="3" stroke-linecap="round" opacity=".7"/>
  <path d="M21 49.5c3.6 2.2 7.2 3.2 11 3.2s7.4-1 11-3.2" fill="none" stroke="#fff4da" stroke-width="2.5" stroke-linecap="round" opacity=".45"/>
</svg>
