<svg xmlns="http://www.w3.org/2000/svg" width="1200" height="630" viewBox="0 0 1200 630" role="img" aria-labelledby="title desc">
  <title id="title">Encontre Aqui Tech</title>
  <desc id="desc">Capa de compartilhamento do Encontre Aqui Tech.</desc>
  <defs>
    <linearGradient id="bg" x1="0" y1="0" x2="1" y2="1">
      <stop offset="0" stop-color="#07100f"/>
      <stop offset="0.45" stop-color="#10261f"/>
      <stop offset="1" stop-color="#0b181c"/>
    </linearGradient>
    <linearGradient id="panel" x1="0" y1="0" x2="1" y2="1">
      <stop offset="0" stop-color="#123d39" stop-opacity="0.96"/>
      <stop offset="1" stop-color="#0a1d24" stop-opacity="0.96"/>
    </linearGradient>
    <linearGradient id="accent" x1="0" y1="0" x2="1" y2="0">
      <stop offset="0" stop-color="#55d6be"/>
      <stop offset="0.55" stop-color="#8ee86e"/>
      <stop offset="1" stop-color="#f6d55c"/>
    </linearGradient>
    <filter id="softShadow" x="-30%" y="-30%" width="160%" height="160%">
      <feDropShadow dx="0" dy="24" stdDeviation="24" flood-color="#000000" flood-opacity="0.38"/>
    </filter>
    <clipPath id="panelClip">
      <rect x="58" y="54" width="1084" height="522" rx="28"/>
    </clipPath>
  </defs>

  <rect width="1200" height="630" fill="url(#bg)"/>

  <g opacity="0.32">
    <path d="M0 98H1200M0 214H1200M0 330H1200M0 446H1200M0 562H1200" stroke="#6be2c8" stroke-width="1"/>
    <path d="M120 0V630M300 0V630M480 0V630M660 0V630M840 0V630M1020 0V630" stroke="#6be2c8" stroke-width="1"/>
  </g>

  <circle cx="1050" cy="68" r="210" fill="#55d6be" opacity="0.09"/>
  <circle cx="952" cy="572" r="170" fill="#f6d55c" opacity="0.11"/>
  <circle cx="96" cy="520" r="160" fill="#8ee86e" opacity="0.08"/>

  <rect x="58" y="54" width="1084" height="522" rx="28" fill="url(#panel)" filter="url(#softShadow)"/>
  <rect x="58" y="54" width="1084" height="522" rx="28" fill="none" stroke="#72e7cf" stroke-opacity="0.32" stroke-width="2"/>
  <rect x="98" y="102" width="282" height="42" rx="21" fill="#0a1518" stroke="#55d6be" stroke-opacity="0.58"/>

  <g clip-path="url(#panelClip)">
    <circle cx="986" cy="314" r="252" fill="#07100f" opacity="0.55"/>
    <image href="astro001-cutout.png" x="756" y="56" width="430" height="430" opacity="0.9"/>
    <path d="M800 488C884 441 978 420 1100 432L1142 576H720C735 538 761 510 800 488Z" fill="#10261f" opacity="0.96"/>
    <path d="M770 505C868 456 978 438 1120 456" fill="none" stroke="#55d6be" stroke-width="2" stroke-opacity="0.45"/>
  </g>

  <text x="122" y="132" font-family="Inter, Arial, sans-serif" font-size="21" font-weight="800" fill="#dffaf3">ENCONTRE AQUI TECH</text>
  <rect x="100" y="172" width="520" height="7" rx="3.5" fill="url(#accent)"/>

  <text x="98" y="259" font-family="Inter, Arial, sans-serif" font-size="68" font-weight="900" fill="#f7fffb">Encontre antes</text>
  <text x="98" y="331" font-family="Inter, Arial, sans-serif" font-size="68" font-weight="900" fill="#f7fffb">de todo mundo.</text>

  <text x="102" y="386" font-family="Inter, Arial, sans-serif" font-size="26" font-weight="650" fill="#d5e8e2">Notícias, Alertas de Segurança,</text>
  <text x="102" y="424" font-family="Inter, Arial, sans-serif" font-size="26" font-weight="650" fill="#d5e8e2">Tutoriais e Curiosidades</text>
  <text x="102" y="462" font-family="Inter, Arial, sans-serif" font-size="26" font-weight="650" fill="#d5e8e2">para viver melhor no mundo Tech!</text>

  <g transform="translate(98 505)">
    <rect width="142" height="44" rx="8" fill="#55d6be"/>
    <text x="22" y="29" font-family="Inter, Arial, sans-serif" font-size="16" font-weight="800" fill="#06110f">NOTÍCIAS</text>
  </g>
  <g transform="translate(256 505)">
    <rect width="156" height="44" rx="8" fill="#8ee86e"/>
    <text x="22" y="29" font-family="Inter, Arial, sans-serif" font-size="16" font-weight="800" fill="#06110f">SEGURANÇA</text>
  </g>
  <g transform="translate(428 505)">
    <rect width="150" height="44" rx="8" fill="#f6d55c"/>
    <text x="21" y="29" font-family="Inter, Arial, sans-serif" font-size="16" font-weight="800" fill="#06110f">TUTORIAIS</text>
  </g>
  <g transform="translate(594 505)">
    <rect width="174" height="44" rx="8" fill="#dffaf3"/>
    <text x="20" y="29" font-family="Inter, Arial, sans-serif" font-size="16" font-weight="800" fill="#06110f">CURIOSIDADES</text>
  </g>

  <text x="836" y="536" font-family="Inter, Arial, sans-serif" font-size="25" font-weight="800" fill="#f7fffb">encontreaquitech.com</text>
</svg>
