<svg xmlns="http://www.w3.org/2000/svg" width="1200" height="630" viewBox="0 0 1200 630" role="img" aria-labelledby="title desc">
  <title id="title">Encontre Aqui Tech</title>
  <desc id="desc">Capa de compartilhamento do Encontre Aqui Tech com paleta escura, creme, bronze e azul.</desc>
  <defs>
    <linearGradient id="heroShade" x1="0" y1="0" x2="1" y2="0">
      <stop offset="0" stop-color="#100d0b"/>
      <stop offset="0.58" stop-color="#100d0b" stop-opacity="0.96"/>
      <stop offset="1" stop-color="#100d0b" stop-opacity="0.56"/>
    </linearGradient>
    <linearGradient id="blueBeam" x1="0" y1="0" x2="1" y2="1">
      <stop offset="0" stop-color="#257da7" stop-opacity="0.42"/>
      <stop offset="0.5" stop-color="#257da7" stop-opacity="0.1"/>
      <stop offset="1" stop-color="#c29f73" stop-opacity="0.12"/>
    </linearGradient>
    <radialGradient id="blueGlow" cx="50%" cy="50%" r="50%">
      <stop offset="0" stop-color="#257da7" stop-opacity="0.34"/>
      <stop offset="0.52" stop-color="#257da7" stop-opacity="0.12"/>
      <stop offset="1" stop-color="#257da7" stop-opacity="0"/>
    </radialGradient>
    <filter id="astroGlow" x="-30%" y="-30%" width="160%" height="160%">
      <feDropShadow dx="0" dy="0" stdDeviation="9" flood-color="#faebd1" flood-opacity="0.26"/>
      <feDropShadow dx="0" dy="22" stdDeviation="18" flood-color="#000000" flood-opacity="0.42"/>
    </filter>
    <filter id="softLift" x="-20%" y="-20%" width="140%" height="140%">
      <feDropShadow dx="0" dy="18" stdDeviation="22" flood-color="#000000" flood-opacity="0.38"/>
    </filter>
    <clipPath id="frameClip">
      <rect x="54" y="44" width="1092" height="542" rx="8"/>
    </clipPath>
  </defs>

  <rect width="1200" height="630" fill="#100d0b"/>

  <g opacity="0.72">
    <rect width="1200" height="630" fill="url(#heroShade)"/>
    <path d="M0 86H1200M0 170H1200M0 254H1200M0 338H1200M0 422H1200M0 506H1200M0 590H1200" stroke="#faebd1" stroke-width="1" opacity="0.08"/>
    <path d="M80 0V630M164 0V630M248 0V630M332 0V630M416 0V630M500 0V630M584 0V630M668 0V630M752 0V630M836 0V630M920 0V630M1004 0V630M1088 0V630" stroke="#faebd1" stroke-width="1" opacity="0.08"/>
    <circle cx="264" cy="118" r="2" fill="#257da7" opacity="0.42"/>
    <circle cx="466" cy="206" r="2" fill="#c29f73" opacity="0.36"/>
    <circle cx="716" cy="76" r="2" fill="#257da7" opacity="0.42"/>
    <circle cx="936" cy="252" r="2" fill="#c29f73" opacity="0.38"/>
    <circle cx="182" cy="430" r="2" fill="#faebd1" opacity="0.28"/>
    <circle cx="628" cy="492" r="2" fill="#257da7" opacity="0.36"/>
  </g>

  <rect x="54" y="44" width="1092" height="542" rx="8" fill="none" stroke="#faebd1" stroke-opacity="0.18"/>
  <rect x="55" y="45" width="1090" height="540" rx="8" fill="url(#blueBeam)" opacity="0.42"/>

  <g clip-path="url(#frameClip)">
    <circle cx="954" cy="302" r="280" fill="url(#blueGlow)"/>
    <path d="M737 92H1146V586H846C792 512 761 425 753 326C747 242 742 164 737 92Z" fill="#000000" opacity="0.22"/>
    <path d="M760 514C862 462 998 444 1136 472L1146 586H724C728 552 740 530 760 514Z" fill="#100d0b" opacity="0.86"/>
    <path d="M750 518C854 468 990 450 1130 475" fill="none" stroke="#257da7" stroke-width="2" stroke-opacity="0.44"/>
    <image href="astro001-cutout.png" x="757" y="78" width="424" height="424" opacity="0.96" filter="url(#astroGlow)"/>
  </g>

  <g filter="url(#softLift)">
    <rect x="96" y="88" width="186" height="42" rx="8" fill="#100d0b" stroke="#faebd1" stroke-opacity="0.28"/>
    <text x="120" y="115" font-family="JetBrains Mono, Consolas, monospace" font-size="15" font-weight="800" fill="#faebd1">ENCONTRE AQUI TECH</text>
  </g>

  <text x="96" y="202" font-family="JetBrains Mono, Consolas, monospace" font-size="17" font-weight="800" letter-spacing="3" fill="#c29f73">TECNOLOGIA PARA ENCONTRAR ANTES</text>
  <rect x="96" y="226" width="426" height="4" fill="#257da7"/>
  <rect x="522" y="226" width="122" height="4" fill="#c29f73"/>

  <text x="96" y="312" font-family="Orbitron, JetBrains Mono, Consolas, monospace" font-size="72" font-weight="900" letter-spacing="1" fill="#faebd1">ENCONTRE ANTES</text>
  <text x="96" y="395" font-family="Orbitron, JetBrains Mono, Consolas, monospace" font-size="72" font-weight="900" letter-spacing="1" fill="#faebd1">DE TODO MUNDO</text>

  <text x="100" y="454" font-family="Inter, Arial, sans-serif" font-size="27" font-weight="600" fill="#faebd1" opacity="0.86">Notícias, Alertas de Segurança, Tutoriais,</text>
  <text x="100" y="492" font-family="Inter, Arial, sans-serif" font-size="27" font-weight="600" fill="#faebd1" opacity="0.86">Curiosidades para viver melhor no mundo Tech!</text>

  <g transform="translate(96 535)" font-family="JetBrains Mono, Consolas, monospace" font-size="15" font-weight="800">
    <rect x="0" y="0" width="192" height="42" rx="8" fill="#faebd1"/>
    <text x="23" y="27" fill="#100d0b">conteúdo útil</text>
    <rect x="208" y="0" width="214" height="42" rx="8" fill="#100d0b" stroke="#faebd1" stroke-opacity="0.28"/>
    <text x="229" y="27" fill="#faebd1">conhecimento tech</text>
    <rect x="438" y="0" width="198" height="42" rx="8" fill="#257da7"/>
    <text x="461" y="27" fill="#faebd1">alertas digitais</text>
  </g>

  <text x="896" y="548" font-family="JetBrains Mono, Consolas, monospace" font-size="21" font-weight="800" fill="#faebd1">encontreaquitech.com</text>
</svg>
